<svg width="17" height="18" viewBox="0 0 17 18" fill="none" xmlns="http://www.w3.org/2000/svg">
<path fill-rule="evenodd" clip-rule="evenodd" d="M0 9.25697C0 13.4584 3.06844 16.9517 7.081 17.6598L7.1284 17.6219C7.1126 17.6189 7.0968 17.6158 7.081 17.6126V11.6173H4.9567V9.25697H7.081V7.36867C7.081 5.24441 8.45 4.06424 10.3855 4.06424C10.9992 4.06424 11.6601 4.15865 12.2737 4.25307V6.42457H11.188C10.1494 6.42457 9.9134 6.94387 9.9134 7.60477V9.25697H12.1793L11.8017 11.6173H9.9134V17.6126C9.8976 17.6158 9.8818 17.6189 9.866 17.6219L9.9134 17.6598C13.926 16.9517 16.9944 13.4584 16.9944 9.25697C16.9944 4.58351 13.1707 0.759766 8.4972 0.759766C3.82374 0.759766 0 4.58351 0 9.25697Z" fill="white"/>
</svg>
