<svg width="18" height="19" viewBox="0 0 18 19" fill="none" xmlns="http://www.w3.org/2000/svg">
<path d="M8.7255 0.759766C6.35597 0.759766 6.0586 0.770126 5.12796 0.812476C4.19914 0.855016 3.56515 1.00207 3.0104 1.21783C2.43656 1.44068 1.9498 1.73879 1.46485 2.22393C0.97953 2.7089 0.68144 3.19568 0.45787 3.76935C0.24157 4.3243 0.09434 4.95849 0.0525301 5.88698C0.01091 6.81765 0 7.11521 0 9.48477C0 11.8544 0.0105401 12.1508 0.0527101 13.0815C0.0954301 14.0104 0.24248 14.6444 0.45805 15.1991C0.68107 15.773 0.97917 16.2598 1.4643 16.7447C1.94907 17.2301 2.43584 17.5289 3.00931 17.7517C3.56442 17.9675 4.1986 18.1146 5.12724 18.1571C6.05787 18.1994 6.35506 18.2098 8.7244 18.2098C11.094 18.2098 11.3905 18.1994 12.3211 18.1571C13.25 18.1146 13.8847 17.9675 14.4398 17.7517C15.0135 17.5289 15.4995 17.2301 15.9843 16.7447C16.4696 16.2598 16.7677 15.773 16.9912 15.1993C17.2057 14.6444 17.353 14.0102 17.3966 13.0817C17.4384 12.151 17.4493 11.8544 17.4493 9.48477C17.4493 7.11521 17.4384 6.81783 17.3966 5.88716C17.353 4.95831 17.2057 4.3243 16.9912 3.76953C16.7677 3.19568 16.4696 2.7089 15.9843 2.22393C15.4989 1.73861 15.0136 1.4405 14.4393 1.21783C13.8831 1.00207 13.2487 0.855016 12.3199 0.812476C11.3892 0.770126 11.093 0.759766 8.7227 0.759766H8.7255ZM7.9428 2.33209C8.1751 2.33172 8.4343 2.33209 8.7255 2.33209C11.055 2.33209 11.3311 2.34045 12.251 2.38226C13.1016 2.42116 13.5633 2.5633 13.8709 2.68272C14.278 2.84086 14.5683 3.02991 14.8735 3.33528C15.1789 3.64066 15.3679 3.93149 15.5264 4.33866C15.6458 4.64585 15.7881 5.10755 15.8269 5.95823C15.8687 6.87799 15.8777 7.15429 15.8777 9.48277C15.8777 11.8113 15.8687 12.0876 15.8269 13.0073C15.788 13.858 15.6458 14.3197 15.5264 14.6269C15.3683 15.0341 15.1789 15.324 14.8735 15.6292C14.5681 15.9346 14.2782 16.1236 13.8709 16.2818C13.5637 16.4017 13.1016 16.5435 12.251 16.5824C11.3313 16.6242 11.055 16.6333 8.7255 16.6333C6.39578 16.6333 6.11968 16.6242 5.19994 16.5824C4.34928 16.5431 3.8876 16.401 3.57987 16.2816C3.17271 16.1234 2.88189 15.9344 2.57652 15.629C2.27116 15.3236 2.08212 15.0335 1.92362 14.6262C1.8042 14.319 1.66188 13.8573 1.62316 13.0066C1.58136 12.0869 1.573 11.8106 1.573 9.48057C1.573 7.15065 1.58136 6.8758 1.62316 5.95605C1.66206 5.10537 1.8042 4.64367 1.92362 4.33611C2.08176 3.92894 2.27116 3.63811 2.57652 3.33274C2.88189 3.02736 3.17271 2.83832 3.57987 2.67982C3.88741 2.55985 4.34928 2.41807 5.19994 2.37898C6.0048 2.34263 6.31671 2.33172 7.9428 2.32991V2.33209ZM13.3827 3.7808C12.8046 3.7808 12.3357 4.24922 12.3357 4.82744C12.3357 5.40547 12.8046 5.87444 13.3827 5.87444C13.9607 5.87444 14.4296 5.40547 14.4296 4.82744C14.4296 4.24941 13.9607 3.7808 13.3827 3.7808ZM8.7255 5.00412C6.25109 5.00412 4.24495 7.01032 4.24495 9.48477C4.24495 11.9592 6.25109 13.9645 8.7255 13.9645C11.1998 13.9645 13.2053 11.9592 13.2053 9.48477C13.2053 7.01032 11.1999 5.00412 8.7255 5.00412ZM8.7255 6.57644C10.3315 6.57644 11.6337 7.87847 11.6337 9.48477C11.6337 11.0909 10.3315 12.3931 8.7255 12.3931C7.1192 12.3931 5.81722 11.0909 5.81722 9.48477C5.81722 7.87847 7.1192 6.57644 8.7255 6.57644Z" fill="white"/>
</svg>
