<svg width="15" height="17" viewBox="0 0 15 17" fill="none" xmlns="http://www.w3.org/2000/svg">
<path d="M5.2664 14.0187C6.6014 14.0187 7.6837 13.063 7.6837 11.6015V0.759766H10.5826C10.42 2.737 12.3855 4.64695 14.5532 4.60327V7.32927C12.6994 7.32927 11.123 6.54538 10.5743 6.11036V11.6015C10.5743 14.0187 8.6728 16.7598 5.2664 16.7598C1.8601 16.7598 0 14.0187 0 11.6015C0 8.18976 3.61044 6.21113 6.0017 6.69474V9.47127C5.8814 9.42877 5.5712 9.36587 5.3069 9.36587C3.96086 9.31617 2.8492 10.408 2.8492 11.6015C2.8492 12.9365 3.93143 14.0187 5.2664 14.0187Z" fill="white"/>
</svg>
