<svg width="16" height="15" viewBox="0 0 16 15" fill="none" xmlns="http://www.w3.org/2000/svg">
<path d="M15.9903 3.94643C16.0977 1.87162 15.3107 0.798436 13.6651 0.762666C11.4472 0.691126 9.9448 1.94317 9.1578 4.51879C10.1594 4.08952 11.5903 3.9822 11.4472 5.62774C11.3757 6.16437 11.0179 6.98707 10.3383 8.02447C8.4781 10.9937 8.0131 9.99197 7.0114 3.51716C6.7252 1.69276 5.93824 0.834215 4.68621 0.941525C3.57726 1.04885 1.8244 2.83748 0 4.48302L0.75122 5.44888C1.46667 4.94806 1.86017 4.69765 2.00326 4.69765C3.04067 4.69765 3.57726 7.38057 4.8293 12.0311C5.4732 13.7481 6.2602 14.6067 7.1903 14.6067C8.7285 14.6067 10.5529 13.1758 12.735 10.3497C14.8456 7.63097 15.9188 5.52042 15.9903 3.94643Z" fill="white"/>
</svg>
