<svg width="20" height="15" viewBox="0 0 20 15" fill="none" xmlns="http://www.w3.org/2000/svg">
<path fill-rule="evenodd" clip-rule="evenodd" d="M17.8212 1.18801C18.6776 1.41859 19.3529 2.09389 19.5835 2.95036C20.0118 4.51506 19.9953 7.77627 19.9953 7.77627C19.9953 7.77627 19.9953 11.021 19.5835 12.5857C19.3529 13.4422 18.6776 14.1174 17.8212 14.348C16.2565 14.7598 9.9976 14.7598 9.9976 14.7598C9.9976 14.7598 3.75529 14.7598 2.17412 14.3316C1.31765 14.101 0.64235 13.4257 0.41176 12.5692C8.9407e-08 11.021 0 7.75977 0 7.75977C0 7.75977 8.9407e-08 4.51506 0.41176 2.95036C0.64235 2.09389 1.33412 1.40212 2.17412 1.17153C3.73882 0.759765 9.9976 0.759766 9.9976 0.759766C9.9976 0.759766 16.2565 0.759765 17.8212 1.18801ZM13.2091 7.64547L8.0044 10.6432V4.64784L13.2091 7.64547Z" fill="white"/>
</svg>
